<?xml version="1.0" standalone="no"?>
<!DOCTYPE svg PUBLIC "-//W3C//DTD SVG 20010904//EN"
 "http://www.w3.org/TR/2001/REC-SVG-20010904/DTD/svg10.dtd">
<svg version="1.0" xmlns="http://www.w3.org/2000/svg"
 width="302.000000pt" height="302.000000pt" viewBox="0 0 302.000000 302.000000"
 preserveAspectRatio="xMidYMid meet">
<metadata>
Created by potrace 1.11, written by Peter Selinger 2001-2013
</metadata>
<g transform="translate(0.000000,302.000000) scale(0.100000,-0.100000)"
fill="#000000" stroke="none">
<path d="M1270 2878 c-124 -72 -238 -138 -253 -146 -16 -8 -25 -18 -20 -22 4
-5 96 -59 203 -121 107 -61 281 -161 385 -222 105 -61 206 -119 225 -130 19
-11 71 -40 115 -66 44 -25 88 -50 97 -56 155 -89 453 -261 486 -280 23 -15 43
-23 43 -18 1 4 2 140 3 302 l1 294 -37 23 c-21 13 -40 24 -42 24 -2 0 -40 21
-83 46 -43 26 -93 55 -110 65 -18 10 -119 69 -225 130 -106 61 -213 123 -238
137 -25 14 -57 32 -72 41 -107 64 -192 111 -199 111 -5 0 -9 5 -9 10 0 27 -64
-2 -270 -122z"/>
<path d="M465 2110 l0 -299 315 -182 c535 -310 561 -324 713 -413 81 -47 150
-86 152 -86 2 0 40 -22 85 -50 45 -27 83 -50 85 -50 2 0 166 -95 366 -210 199
-116 365 -208 368 -204 7 7 8 583 1 593 -5 6 -131 80 -875 509 -462 266 -789
455 -994 574 -112 65 -207 118 -210 118 -3 0 -6 -135 -6 -300z"/>
<path d="M468 1203 c-3 -4 -4 -140 -4 -301 1 -247 4 -294 16 -303 15 -9 396
-230 460 -266 32 -19 446 -257 533 -308 l38 -22 192 111 c106 62 222 129 260
150 37 21 67 39 67 41 0 2 -64 40 -142 86 -79 45 -195 112 -258 149 -63 37
-266 154 -450 260 -392 226 -632 365 -677 392 -17 10 -33 15 -35 11z"/>
</g>
</svg>
